# xmcd CD database file
#
# Track frame offsets:
#	150
#	18165
#	33895
#	52654
#	70513
#	91728
#	108757
#	124183
#	137145
#	153719
#	164551
#	178010
#	192780
#	212189
#	227450
#	242126
#	258738
#	275297
#
# Disc length: 3916 seconds
#
# Revision: 0
# Processed by: cddbd v1.5.1PL2 Copyright (c) Steve Scherf et al.
# Submitted via: CDex 1.51
#
DISCID=ec0f4a12
DTITLE=Various Artist - ALOHA Hawaiian
DYEAR=2005
DGENRE=Hawaiian
TTITLE0=Aloha 'Oe
TTITLE1=Hi'ilawe
TTITLE2=He Aloha No 'o Honolulu
TTITLE3=E Ku'u Morning Dew
TTITLE4=Hawaiian Wedding Song
TTITLE5=I'll Remember You
TTITLE6=Pua Lililehua
TTITLE7=Lovely Hula Hands
TTITLE8=Kaimana Hila
TTITLE9=Sophisticated Hula
TTITLE10=Beyond The Reef
TTITLE11=Tiny Bubbles
TTITLE12=Maika'i Ka Makani O Kohala
TTITLE13=Puamana
TTITLE14=In Your Hawaiian Way
TTITLE15=Blue Hawai'i
TTITLE16=Pua Lilia
TTITLE17=E Pili Mai
EXTD=YEAR: 2005
EXTT0=
EXTT1=
EXTT2=
EXTT3=
EXTT4=
EXTT5=
EXTT6=
EXTT7=
EXTT8=
EXTT9=
EXTT10=
EXTT11=
EXTT12=
EXTT13=
EXTT14=
EXTT15=
EXTT16=
EXTT17=
PLAYORDER=
